<svg width="26" height="26" viewBox="0 0 26 26" fill="none" xmlns="http://www.w3.org/2000/svg">
<g clip-path="url(#clip0)">
<path d="M13 3.25C19.0069 3.25 24.1033 7.32351 26 13C24.1033 18.6765 19.0069 22.75 13 22.75C6.99306 22.75 1.89666 18.6765 -3.8147e-06 13C1.89666 7.32351 6.99306 3.25 13 3.25ZM13 19.5C16.5899 19.5 19.5 16.5899 19.5 13C19.5 9.41015 16.5899 6.50003 13 6.50003C9.41012 6.50003 6.5 9.41015 6.5 13C6.5 16.5898 9.41012 19.5 13 19.5Z" fill="#828282"/>
<path d="M10.7019 10.7019C9.4327 11.9711 9.4327 14.0289 10.7019 15.2981C11.9711 16.5673 14.0289 16.5673 15.2981 15.2981C16.5673 14.0289 16.5673 11.9711 15.2981 10.7019C14.0289 9.4327 11.9711 9.4327 10.7019 10.7019Z" fill="#828282"/>
<g clip-path="url(#clip1)">
<path d="M13 3.25C19.0069 3.25 24.1033 7.32351 26 13C24.1033 18.6765 19.0069 22.75 13 22.75C6.99306 22.75 1.89666 18.6765 -3.8147e-06 13C1.89666 7.32351 6.99306 3.25 13 3.25ZM13 19.5C16.5899 19.5 19.5 16.5899 19.5 13C19.5 9.41015 16.5899 6.50003 13 6.50003C9.41012 6.50003 6.5 9.41015 6.5 13C6.5 16.5898 9.41012 19.5 13 19.5Z" fill="#24A701"/>
<path d="M10.7019 10.7019C9.4327 11.9711 9.4327 14.0289 10.7019 15.2981C11.9711 16.5673 14.0289 16.5673 15.2981 15.2981C16.5673 14.0289 16.5673 11.9711 15.2981 10.7019C14.0289 9.4327 11.9711 9.4327 10.7019 10.7019Z" fill="#24A701"/>
</g>
</g>
<defs>
<clipPath id="clip0">
<rect width="26" height="26" fill="white" transform="matrix(-1 0 0 1 26 0)"/>
</clipPath>
<clipPath id="clip1">
<rect width="26" height="26" fill="white" transform="matrix(-1 0 0 1 26 0)"/>
</clipPath>
</defs>
</svg>
