<svg width="16" height="16" viewBox="0 0 16 16" fill="none" xmlns="http://www.w3.org/2000/svg">
<path d="M15.3574 14.3643C15.6761 14.6832 15.6761 15.2003 15.3574 15.5192C15.0387 15.8382 14.522 15.8382 14.2033 15.5192L10.2117 11.5243C10.0529 11.3655 9.77169 11.3438 9.59179 11.4669C9.59179 11.4669 9.48156 11.5525 9.24465 11.688C8.35069 12.1994 7.31546 12.4917 6.21203 12.4917C2.83192 12.4917 0.0917969 9.74931 0.0917969 6.36644C0.0917969 2.98357 2.83192 0.241211 6.21203 0.241211C9.59214 0.241211 12.3323 2.98357 12.3323 6.36644C12.3323 7.47827 12.0363 8.52091 11.5189 9.41975C11.3861 9.65027 11.312 9.74417 11.312 9.74417C11.1829 9.93058 11.2064 10.2099 11.3657 10.3693L15.3574 14.3643ZM6.21203 10.8583C8.69078 10.8583 10.7002 8.84721 10.7002 6.36644C10.7002 3.88567 8.69078 1.8746 6.21203 1.8746C3.73328 1.8746 1.72386 3.88567 1.72386 6.36644C1.72386 8.84721 3.73328 10.8583 6.21203 10.8583Z" fill="white"/>
</svg>
