<?xml version="1.0" encoding="utf-8"?>
<!-- Generator: Adobe Illustrator 24.3.0, SVG Export Plug-In . SVG Version: 6.00 Build 0)  -->
<svg version="1.1" id="Capa_1" xmlns="http://www.w3.org/2000/svg" xmlns:xlink="http://www.w3.org/1999/xlink" x="0px" y="0px"
	 viewBox="0 0 212 140" style="enable-background:new 0 0 212 140;" xml:space="preserve">
<style type="text/css">
	.st0{fill:none;stroke:#00448A;stroke-width:5;}
	.st1{fill:#00448A;}
	.st2{fill:#00448A;fill-opacity:0.53;}
	.st3{fill:#00448A;fill-opacity:0.4;}
	.st4{fill:none;stroke:#00448A;stroke-width:2;}
</style>
<line class="st0" x1="42" y1="2.5" x2="7" y2="2.5"/>
<line class="st0" x1="4.5" y1="35" x2="4.5" y2="0"/>
<line class="st0" x1="2.5" y1="100" x2="2.5" y2="135"/>
<line class="st0" x1="35" y1="137.5" x2="0" y2="137.5"/>
<line class="st0" x1="170" y1="137.5" x2="205" y2="137.5"/>
<line class="st0" x1="207.5" y1="105" x2="207.5" y2="140"/>
<line class="st0" x1="209.5" y1="40" x2="209.5" y2="5"/>
<line class="st0" x1="177" y1="2.5" x2="212" y2="2.5"/>
<path class="st1" d="M64.5,33.6H37.8c-0.8,0-1.4,0.6-1.4,1.4v28.6c0,0.8,0.6,1.4,1.4,1.4h26.7c0.8,0,1.4-0.6,1.4-1.4V34.9
	C65.9,34.2,65.3,33.6,64.5,33.6z M58.3,62.1H43.7c0-0.3-0.1-0.5-0.1-0.7c0-4,3.3-7.3,7.4-7.3s7.4,3.3,7.4,7.3
	C58.4,61.6,58.3,61.9,58.3,62.1z M63.1,62.1h-2c0-0.3,0.1-0.5,0.1-0.7c0-5.5-4.6-10.1-10.2-10.1c-5.6,0-10.2,4.5-10.2,10.1
	c0,0.3,0.1,0.5,0.1,0.7h-1.7V36.3h23.9V62.1z"/>
<path class="st1" d="M83.6,46.5h86.2c2.6,0,4.8-1.7,4.8-3.7c0-2-2.2-3.7-4.8-3.7H83.6c-2.6,0-4.8,1.7-4.8,3.7
	C78.8,44.8,80.9,46.5,83.6,46.5z"/>
<path class="st1" d="M83.6,59.4h86.2c2.6,0,4.8-1.7,4.8-3.7s-2.2-3.7-4.8-3.7H83.6c-2.6,0-4.8,1.7-4.8,3.7
	C78.8,57.7,80.9,59.4,83.6,59.4z"/>
<path class="st1" d="M64.9,96.2c-1.4-0.4-2.8-0.1-4.1,0.7c-0.6,0.4-1.1,0.9-1.6,1.4c-0.1,0.1-0.2,0.2-0.2,0.3c0-0.4,0-0.8-0.1-1.2
	c-0.3-1.1-1.2-1.9-2.4-1.6c-2.4,0.5-2.2,4.9-4.7,4.9c-0.2,0-0.3-0.1-0.5-0.1c1.6-1.7,2.9-3.6,3.5-5.1c0.6-1.5,1.2-3.6-0.4-4.7
	c-1.5-1-3.4,0.2-4.4,1.4c-1.6,1.9-3,5.4-2.3,8.1c-0.9,0.8-1.8,1.5-2.7,2c-0.7,0.4-1.6,0.6-2.4,0.6c1.6-2,3-4.1,4-6.4
	c1.2-2.6,4-8.3,0.8-10.5c-3.5-2.5-7.6,1.3-9.1,4.4c-1.8,3.5-2.3,7.9-0.7,11.6c0.2,0.6,0.5,1,0.8,1.4c-0.5,0.5-1,1.1-1.5,1.5
	c-1.3,1.2,0.6,3.2,1.9,2c0.6-0.5,1.1-1.1,1.6-1.6c2.6,1.2,6-0.3,8.8-2.8c1.4,1.1,3.4,1.2,4.9,0.2c0.9-0.6,1.5-1.4,2-2.3
	c0,0.6,0,1.1,0.3,1.5c0.5,0.8,1.5,1,2.4,0.6c1.9-0.9,2.8-4.4,5.3-3.7C65.9,99.3,66.6,96.6,64.9,96.2z M40.3,101.3
	c-0.4-0.7-0.6-1.4-0.7-2.1c-0.6-2.6,0-5.5,1.3-7.8c0.6-1,1.3-2,2.2-2.6c0.8-0.5,2.9-1.3,3,0.3c0.1,1.3-0.6,3-1.1,4.2
	c-0.6,1.6-1.3,3-2.2,4.5C42.1,98.9,41.2,100.1,40.3,101.3z M50.4,97.3c0.3-1.2,0.8-2.4,1.2-2.9c0.3-0.4,0.6-0.6,0.9-0.9
	c-0.3,1.2-1,2.4-1.8,3.4C50.7,97,50.6,97.2,50.4,97.3z"/>
<path class="st2" d="M79,76h68v26H79V76z"/>
<rect x="38" y="35" class="st3" width="28" height="27"/>
<path class="st1" d="M51.1,52c3,0,5.5-2.5,5.5-5.5c0-3-2.5-5.5-5.5-5.5c-3,0-5.5,2.5-5.5,5.5C45.6,49.5,48.1,52,51.1,52z M51.1,43.6
	c1.6,0,2.8,1.3,2.8,2.8s-1.3,2.8-2.8,2.8c-1.6,0-2.8-1.3-2.8-2.8S49.6,43.6,51.1,43.6z"/>
<path class="st4" d="M28,18h149c5,0,9,4,9,9v86.8c0,5-4,9-9,9H28c-5,0-9-4-9-9V27C19,22,23,18,28,18z"/>
<path class="st1" d="M155.2,78.6c1-0.9,3-2,5.5-2.3c1.4-0.2,2.7-0.1,4,0.3c1.5,0.4,3,1.2,4.3,2.4c0,0,0,0,0.1,0c0,0,0,0,0.1,0
	c0,0,0-0.1,0-0.1c-1.3-1.2-2.8-2-4.4-2.4c-1.3-0.4-2.7-0.5-4.1-0.3c-2.5,0.3-4.6,1.5-5.6,2.4c0,0,0,0.1,0,0.1
	C155.1,78.6,155.1,78.6,155.2,78.6z"/>
<path class="st1" d="M154.8,80.4c1-1,3.2-2.4,5.9-2.8c2.2-0.3,5.5-0.1,8.8,2.9c0,0,0,0,0.1,0c0,0,0,0,0.1,0c0,0,0-0.1,0-0.1
	c-3.3-3-6.7-3.3-8.9-2.9c-2.7,0.4-4.9,1.8-6,2.8c0,0,0,0.1,0,0.1C154.8,80.4,154.8,80.4,154.8,80.4z"/>
<path class="st1" d="M154.4,82.3C154.5,82.3,154.5,82.2,154.4,82.3c1.5-1.6,4.3-3.2,7.4-3.3c2.9-0.1,5.6,1,8.1,3.3c0,0,0.1,0,0.1,0
	c0,0,0-0.1,0-0.1c-1.3-1.2-2.7-2.1-4.2-2.7c-1.3-0.5-2.6-0.7-4-0.6c-1.5,0.1-3.1,0.5-4.5,1.2c-1.2,0.6-2.3,1.4-3,2.2
	C154.4,82.2,154.4,82.2,154.4,82.3C154.4,82.2,154.4,82.3,154.4,82.3z"/>
<path class="st1" d="M154.1,84.1C154.1,84.1,154.1,84.1,154.1,84.1c1.4-1.6,4.3-3.6,7.8-3.8c1.4-0.1,2.8,0.2,4.2,0.7
	c1.5,0.6,3,1.5,4.3,2.9c0,0,0.1,0,0.1,0c0,0,0-0.1,0-0.1c-1.4-1.3-2.8-2.3-4.4-2.9c-1.4-0.5-2.8-0.8-4.2-0.7
	c-3.6,0.2-6.5,2.2-7.9,3.8C154,84,154,84,154.1,84.1C154.1,84.1,154.1,84.1,154.1,84.1z"/>
<path class="st1" d="M153.7,85.9C153.7,85.9,153.7,85.9,153.7,85.9c0.1,0,0.1,0,0.1,0c1.4-1.8,4.4-4,8.2-4.2
	c1.5-0.1,2.9,0.2,4.4,0.7c1.6,0.6,3.1,1.7,4.5,3.1c0,0,0.1,0,0.1,0c0,0,0-0.1,0-0.1c-1.4-1.4-3-2.5-4.6-3.1
	c-1.4-0.6-2.9-0.8-4.4-0.7c-3.8,0.2-6.8,2.4-8.3,4.2C153.7,85.8,153.7,85.9,153.7,85.9z"/>
<path class="st1" d="M153.4,87.7C153.4,87.7,153.4,87.7,153.4,87.7c0.1,0,0.1,0,0.1,0c1.5-2,4.7-4.4,8.6-4.6
	c1.5-0.1,3.1,0.2,4.5,0.8c1.7,0.7,3.2,1.8,4.7,3.3c0,0,0.1,0,0.1,0c0,0,0-0.1,0-0.1c-1.5-1.5-3.1-2.7-4.8-3.3
	c-1.5-0.6-3-0.9-4.6-0.8c-1.7,0.1-3.5,0.7-5.1,1.6c-1.4,0.8-2.7,1.9-3.6,3.1C153.3,87.6,153.3,87.7,153.4,87.7z"/>
<path class="st1" d="M153.1,90c1.1-1.5,2.5-2.9,3.9-3.8c1.6-1.1,3.4-1.7,5.1-1.8c3.2-0.2,6.4,1.4,9.4,4.6c0,0,0.1,0,0.1,0
	c0,0,0-0.1,0-0.1c-3.1-3.3-6.3-4.8-9.5-4.6c-1.8,0.1-3.5,0.7-5.2,1.8c-1.4,1-2.8,2.3-4,3.8c0,0,0,0.1,0,0.1
	C153,90,153.1,90,153.1,90C153.1,90,153.1,90,153.1,90z"/>
<path class="st1" d="M153.2,91.9c0.4-0.4,0.9-0.9,1.4-1.4c0.8-0.8,1.7-1.8,2.6-2.6c1.2-1,2.8-2.1,5.2-2.2c2.1,0,3.5,0.8,4.8,1.8
	l0.2,0.2c1.1,0.8,2.3,1.8,3.7,2.6c0.1,0.1,0.2,0.1,0.3,0.2c0.2,0.1,0.3,0.2,0.4,0.3c0,0,0.1,0,0.1,0s0-0.1,0-0.1
	c-0.1-0.1-0.3-0.2-0.5-0.3c-0.1-0.1-0.2-0.1-0.3-0.2c-1.3-0.8-2.6-1.8-3.7-2.6l-0.2-0.2c-1.3-1-2.8-1.9-4.9-1.8
	c-2.4,0.1-4.1,1.2-5.3,2.2c-0.9,0.8-1.8,1.7-2.6,2.6c-0.5,0.5-1,1-1.4,1.4c0,0,0,0.1,0,0.1C153.1,91.9,153.1,91.9,153.2,91.9
	C153.2,91.9,153.2,91.9,153.2,91.9z"/>
<path class="st1" d="M162.6,86.9C162.6,86.9,162.6,86.9,162.6,86.9L162.6,86.9c0.6,0,1.2,0.1,1.7,0.2l-0.2,0.1
	c-0.4-0.1-0.9-0.2-1.5-0.2c0,0,0,0,0,0L162.6,86.9z M162.6,86.9c-1.2,0-2.1,0.3-2.9,0.7c0,0.1-0.1,0.1-0.1,0.2
	c0.8-0.4,1.7-0.7,3-0.7L162.6,86.9z M172.1,92.3l0.1,0.1L172.1,92.3z M165.2,87.7C165.2,87.7,165.2,87.8,165.2,87.7
	C165.2,87.8,165.2,87.7,165.2,87.7L165.2,87.7z M171.9,92.2L171.9,92.2l0,0.1l0,0L171.9,92.2L171.9,92.2L171.9,92.2z"/>
<path class="st1" d="M172.5,94.1c0,0-0.5,0-1-0.1c-1.7-0.4-3.4-1.4-4.2-2.6c-0.1-0.1-0.1-0.2-0.2-0.3c-0.9-1.3-1.9-2.8-4.4-2.8
	c0,0,0,0,0,0c-3,0-4.1,1.5-5.2,2.9l-0.1,0.1c-0.2,0.3-0.4,0.5-0.6,0.8c-1.3,1.7-2.5,3.3-3.5,3.5c0,0-0.1,0.1-0.1,0.1
	c0,0,0,0.1,0.1,0.1c0,0,0,0,0,0c1.1-0.3,2.3-1.9,3.6-3.6c0.2-0.3,0.4-0.5,0.6-0.8l0.1-0.1c1.1-1.5,2.2-2.8,5.1-2.8c0,0,0,0,0,0
	c2.5,0,3.4,1.5,4.3,2.7c0.1,0.1,0.1,0.2,0.2,0.3c0.9,1.3,2.6,2.3,4.3,2.7c0.5,0.1,1,0.1,1,0.1C172.6,94.2,172.6,94.2,172.5,94.1
	C172.6,94.1,172.6,94.1,172.5,94.1z"/>
<path class="st1" d="M159.5,92.7c-0.1-0.4-0.3-0.6-0.5-0.7c-0.5-0.1-1.2,0.6-2.3,2.3c-0.8,1.2-2,2.2-2.9,2.5c0,0-0.1,0.1-0.1,0.1
	c0,0,0.1,0.1,0.1,0.1c1-0.3,2.2-1.3,3-2.5c0.4-0.6,1.5-2.3,2.1-2.2c0.2,0,0.3,0.2,0.4,0.6c0.4,1.6-1,4.5-4.5,5.9c0,0-0.1,0.1,0,0.1
	c0,0,0,0,0.1,0c0,0,0,0,0,0C158.4,97.3,159.8,94.3,159.5,92.7z"/>
<path class="st1" d="M158.1,94.3C158.2,94.3,158.1,94.2,158.1,94.3c-0.1-0.1-0.1-0.1-0.1-0.1c0,0-0.9,2.4-4.1,3.5c0,0-0.1,0.1,0,0.1
	c0,0,0,0.1,0.1,0.1c0,0,0,0,0,0C157.2,96.8,158.1,94.3,158.1,94.3z"/>
<path class="st1" d="M171.1,95.2c-2.6-0.6-3.5-1.5-4.7-3.2c-1.3-1.8-2.6-2.6-4.4-2.4c-0.6,0-1.1,0.3-1.3,0.6c-0.3,0.5,0,1.3,0.2,1.8
	c0.3,0.7,0.3,1.2,0.2,1.9c0,0.1,0,0.2-0.1,0.4c-0.1,0.8-0.9,2.3-1.6,3.2c-0.9,1.2-2.8,2.4-3.5,2.8c0,0-0.1,0.1,0,0.1c0,0,0,0,0.1,0
	c0,0,0,0,0,0c0.8-0.4,2.7-1.6,3.6-2.8c0.7-0.9,1.5-2.5,1.6-3.3c0-0.1,0-0.3,0.1-0.4c0.1-0.6,0.2-1.2-0.2-1.9
	c-0.2-0.5-0.5-1.2-0.2-1.7c0.2-0.3,0.6-0.5,1.2-0.5c1.8-0.1,3,0.6,4.3,2.4c1.2,1.8,2.2,2.6,4.8,3.2
	C171.1,95.4,171.2,95.3,171.1,95.2C171.2,95.3,171.1,95.2,171.1,95.2z"/>
<path class="st1" d="M169.2,100.5c-1.1-0.2-2.6-1.4-3.6-3.5c-0.5-1-1.3-2.1-2.2-2.1c0,0,0,0,0,0c-0.6,0-1.2,0.6-1.6,1.7
	c-0.3,0.8-1.1,2.6-4.2,4.3c-0.1,0.1-0.2,0.1-0.3,0.2c0,0,0,0.1,0,0.1c0,0,0,0,0.1,0c0,0,0,0,0,0c0.1-0.1,0.2-0.1,0.3-0.2
	c1-0.5,3.2-1.7,4.2-4.3c0.4-1,0.9-1.5,1.5-1.6c0,0,0,0,0,0c0.9,0,1.7,1.1,2.1,2c1,2.2,2.6,3.4,3.7,3.6
	C169.2,100.7,169.2,100.6,169.2,100.5C169.2,100.5,169.2,100.5,169.2,100.5z"/>
<path class="st1" d="M167.9,101.5c-0.1,0-0.1-0.1-0.2-0.1c-1-0.5-2.4-1.2-3.2-3.4c-0.3-0.9-0.5-1.5-1-1.5c-0.3,0-0.6,0.6-0.9,1.2
	c-0.1,0.2-0.2,0.5-0.4,0.7c-1,1.8-2.4,2.6-3.1,3.1c-0.2,0.1-0.3,0.2-0.4,0.3c0,0,0,0.1,0,0.1c0,0,0,0,0.1,0c0,0,0,0,0,0
	c0.1-0.1,0.2-0.1,0.4-0.3c0.8-0.5,2.2-1.3,3.2-3.1c0.1-0.2,0.3-0.5,0.4-0.7c0.3-0.6,0.5-1.1,0.8-1.1c0.3,0,0.5,0.1,0.9,1.4
	c0.8,2.3,2.3,3.1,3.3,3.5c0.1,0,0.1,0.1,0.2,0.1c0,0,0.1,0,0.1,0C167.9,101.6,167.9,101.5,167.9,101.5z"/>
<path class="st1" d="M165.9,102.1c0,0-1.3-0.3-1.7-1.5c-0.3-0.8-0.5-1.2-0.7-1.2c-0.2,0-0.4,0.2-0.5,0.4c-0.5,0.9-1.4,1.7-2.3,2.3
	c0,0,0,0.1,0,0.1c0,0,0.1,0,0.1,0c0.9-0.6,1.9-1.4,2.4-2.3c0.2-0.3,0.3-0.4,0.3-0.4c0.1,0,0.3,0.2,0.6,1.1c0.4,1.3,1.7,1.6,1.8,1.6
	c0,0,0,0,0,0C165.9,102.3,165.9,102.2,165.9,102.1C165.9,102.2,165.9,102.1,165.9,102.1z"/>
<path class="st1" d="M163.4,101.7c0,0-0.1,0-0.1,0c0,0-0.2,0.4-0.5,0.6c0,0,0,0.1,0,0.1c0,0,0,0,0.1,0c0,0,0,0,0,0
	C163.2,102.2,163.4,101.8,163.4,101.7C163.4,101.8,163.4,101.7,163.4,101.7z"/>
<path class="st1" d="M169.6,99.8c-0.5-0.1-2.2-0.6-4.2-4.4c-0.5-0.9-0.3-1.4-0.2-1.6c0.1-0.2,0.3-0.2,0.4-0.2c0.1,0,0.3,0.2,0.5,0.5
	c0.3,0.4,0.7,0.9,1.4,1.3c0.8,0.5,1.7,0.7,2.5,0.9c0.3,0.1,0.6,0.1,0.9,0.2c0,0,0.1,0,0.1,0c0,0,0-0.1,0-0.1
	c-0.2-0.1-0.6-0.2-0.9-0.2c-0.7-0.2-1.6-0.4-2.4-0.9c-0.6-0.4-1.1-0.9-1.3-1.3c-0.2-0.3-0.4-0.5-0.6-0.5c-0.2,0-0.4,0-0.6,0.2
	c-0.2,0.2-0.3,0.7,0.2,1.7c0.9,1.7,2.2,4,4.3,4.5c0,0,0,0,0,0C169.6,100,169.6,100,169.6,99.8C169.6,99.9,169.6,99.9,169.6,99.8z"/>
<path class="st1" d="M163.2,94.4C163.2,94.4,163.1,94.4,163.2,94.4L163.2,94.4L163.2,94.4z"/>
<path class="st1" d="M164.9,93.1c0.1-0.1,0.2-0.2,0.2-0.3c0.1-0.5-0.8-1.5-1.5-1.8c-0.3-0.1-0.6-0.2-0.9-0.2c-0.3,0-0.5,0.1-0.6,0.2
	c-0.1,0.2-0.1,0.4,0.1,0.8c0.2,0.4,0.2,0.9,0.2,1.4c0,0.4,0,0.8,0.2,1c0.1,0.1,0.3,0.1,0.6,0.2v0c0.8,0,1-0.4,1.3-0.8l0.1-0.1
	C164.8,93.3,164.9,93.2,164.9,93.1z M164.5,93.4L164.5,93.4c-0.4,0.5-0.6,0.8-1.3,0.8h0c-0.2,0-0.4,0-0.4-0.1
	c-0.2-0.2-0.2-0.5-0.1-0.9c0-0.5,0-1-0.2-1.4c-0.1-0.3-0.2-0.5-0.1-0.6c0.1-0.1,0.3-0.2,0.5-0.2c0.3,0,0.6,0.1,0.9,0.2
	c0.3,0.1,0.7,0.4,1,0.8c0.3,0.3,0.5,0.7,0.4,0.9c0,0.1-0.1,0.2-0.2,0.2C164.8,93.1,164.6,93.2,164.5,93.4z"/>
<path class="st1" d="M163.5,92.1C163.5,92.1,163.5,92.1,163.5,92.1c-0.1,0-0.2,0-0.2,0.1c0,0.1,0,0.2,0,0.2c0,0.1,0,0.6,0.2,0.6
	c0.2,0,0.4-0.4,0.4-0.5C164,92.4,163.7,92.1,163.5,92.1z M163.5,92.9c-0.1-0.1-0.1-0.5,0-0.6c0.1,0.1,0.3,0.3,0.3,0.3
	C163.8,92.6,163.6,92.8,163.5,92.9z"/>
<path class="st1" d="M170.8,97.9c-1.5-0.2-2.3-0.6-2.6-0.9c-0.1,0-0.1-0.1-0.2,0c0,0,0,0,0,0.1c0,0.2,1.2,1.2,2.6,1.7c0,0,0,0,0,0
	c0,0,0.1,0,0.1-0.1c0,0,0-0.1-0.1-0.1c-1-0.3-1.8-0.9-2.2-1.3c0.5,0.2,1.2,0.5,2.4,0.7C170.8,98.1,170.8,98,170.8,97.9
	C170.9,97.9,170.8,97.9,170.8,97.9z"/>
</svg>
